<svg xmlns="http://www.w3.org/2000/svg" width="546.727" height="18.687" viewBox="0 0 546.727 18.687">
  <g id="グループ_34" data-name="グループ 34" transform="translate(-376.137 -1405.157)">
    <g id="グループ_32" data-name="グループ 32" transform="translate(0 -6)">
      <g id="グループ_28" data-name="グループ 28">
        <line id="線_11" data-name="線 11" x1="17" y2="18" transform="translate(376.5 1411.5)" fill="none" stroke="#707070" stroke-width="1"/>
        <line id="線_18" data-name="線 18" x1="17" y2="18" transform="translate(410.5 1411.5)" fill="none" stroke="#707070" stroke-width="1"/>
        <line id="線_13" data-name="線 13" x1="17" y2="18" transform="translate(393.5 1411.5)" fill="none" stroke="#707070" stroke-width="1"/>
        <line id="線_15" data-name="線 15" x1="17" y2="18" transform="translate(427.5 1411.5)" fill="none" stroke="#707070" stroke-width="1"/>
        <line id="線_12" data-name="線 12" x1="17" y2="18" transform="translate(384.5 1411.5)" fill="none" stroke="#707070" stroke-width="1"/>
        <line id="線_17" data-name="線 17" x1="17" y2="18" transform="translate(418.5 1411.5)" fill="none" stroke="#707070" stroke-width="1"/>
        <line id="線_14" data-name="線 14" x1="17" y2="18" transform="translate(401.5 1411.5)" fill="none" stroke="#707070" stroke-width="1"/>
        <line id="線_16" data-name="線 16" x1="17" y2="18" transform="translate(435.5 1411.5)" fill="none" stroke="#707070" stroke-width="1"/>
      </g>
      <g id="グループ_31" data-name="グループ 31" transform="translate(134)">
        <line id="線_11-2" data-name="線 11" x1="17" y2="18" transform="translate(376.5 1411.5)" fill="none" stroke="#707070" stroke-width="1"/>
        <line id="線_18-2" data-name="線 18" x1="17" y2="18" transform="translate(410.5 1411.5)" fill="none" stroke="#707070" stroke-width="1"/>
        <line id="線_13-2" data-name="線 13" x1="17" y2="18" transform="translate(393.5 1411.5)" fill="none" stroke="#707070" stroke-width="1"/>
        <line id="線_15-2" data-name="線 15" x1="17" y2="18" transform="translate(427.5 1411.5)" fill="none" stroke="#707070" stroke-width="1"/>
        <line id="線_12-2" data-name="線 12" x1="17" y2="18" transform="translate(384.5 1411.5)" fill="none" stroke="#707070" stroke-width="1"/>
        <line id="線_17-2" data-name="線 17" x1="17" y2="18" transform="translate(418.5 1411.5)" fill="none" stroke="#707070" stroke-width="1"/>
        <line id="線_14-2" data-name="線 14" x1="17" y2="18" transform="translate(401.5 1411.5)" fill="none" stroke="#707070" stroke-width="1"/>
        <line id="線_16-2" data-name="線 16" x1="17" y2="18" transform="translate(435.5 1411.5)" fill="none" stroke="#707070" stroke-width="1"/>
      </g>
      <g id="グループ_29" data-name="グループ 29" transform="translate(67)">
        <line id="線_11-3" data-name="線 11" x1="17" y2="18" transform="translate(376.5 1411.5)" fill="none" stroke="#707070" stroke-width="1"/>
        <line id="線_18-3" data-name="線 18" x1="17" y2="18" transform="translate(410.5 1411.5)" fill="none" stroke="#707070" stroke-width="1"/>
        <line id="線_13-3" data-name="線 13" x1="17" y2="18" transform="translate(393.5 1411.5)" fill="none" stroke="#707070" stroke-width="1"/>
        <line id="線_15-3" data-name="線 15" x1="17" y2="18" transform="translate(427.5 1411.5)" fill="none" stroke="#707070" stroke-width="1"/>
        <line id="線_12-3" data-name="線 12" x1="17" y2="18" transform="translate(384.5 1411.5)" fill="none" stroke="#707070" stroke-width="1"/>
        <line id="線_17-3" data-name="線 17" x1="17" y2="18" transform="translate(418.5 1411.5)" fill="none" stroke="#707070" stroke-width="1"/>
        <line id="線_14-3" data-name="線 14" x1="17" y2="18" transform="translate(401.5 1411.5)" fill="none" stroke="#707070" stroke-width="1"/>
        <line id="線_16-3" data-name="線 16" x1="17" y2="18" transform="translate(435.5 1411.5)" fill="none" stroke="#707070" stroke-width="1"/>
      </g>
      <g id="グループ_30" data-name="グループ 30" transform="translate(201)">
        <line id="線_11-4" data-name="線 11" x1="17" y2="18" transform="translate(376.5 1411.5)" fill="none" stroke="#707070" stroke-width="1"/>
        <line id="線_18-4" data-name="線 18" x1="17" y2="18" transform="translate(410.5 1411.5)" fill="none" stroke="#707070" stroke-width="1"/>
        <line id="線_13-4" data-name="線 13" x1="17" y2="18" transform="translate(393.5 1411.5)" fill="none" stroke="#707070" stroke-width="1"/>
        <line id="線_15-4" data-name="線 15" x1="17" y2="18" transform="translate(427.5 1411.5)" fill="none" stroke="#707070" stroke-width="1"/>
        <line id="線_12-4" data-name="線 12" x1="17" y2="18" transform="translate(384.5 1411.5)" fill="none" stroke="#707070" stroke-width="1"/>
        <line id="線_17-4" data-name="線 17" x1="17" y2="18" transform="translate(418.5 1411.5)" fill="none" stroke="#707070" stroke-width="1"/>
        <line id="線_14-4" data-name="線 14" x1="17" y2="18" transform="translate(401.5 1411.5)" fill="none" stroke="#707070" stroke-width="1"/>
        <line id="線_16-4" data-name="線 16" x1="17" y2="18" transform="translate(435.5 1411.5)" fill="none" stroke="#707070" stroke-width="1"/>
      </g>
    </g>
    <g id="グループ_33" data-name="グループ 33" transform="translate(269 -6)">
      <g id="グループ_28-2" data-name="グループ 28">
        <line id="線_11-5" data-name="線 11" x1="17" y2="18" transform="translate(376.5 1411.5)" fill="none" stroke="#707070" stroke-width="1"/>
        <line id="線_18-5" data-name="線 18" x1="17" y2="18" transform="translate(410.5 1411.5)" fill="none" stroke="#707070" stroke-width="1"/>
        <line id="線_13-5" data-name="線 13" x1="17" y2="18" transform="translate(393.5 1411.5)" fill="none" stroke="#707070" stroke-width="1"/>
        <line id="線_15-5" data-name="線 15" x1="17" y2="18" transform="translate(427.5 1411.5)" fill="none" stroke="#707070" stroke-width="1"/>
        <line id="線_12-5" data-name="線 12" x1="17" y2="18" transform="translate(384.5 1411.5)" fill="none" stroke="#707070" stroke-width="1"/>
        <line id="線_17-5" data-name="線 17" x1="17" y2="18" transform="translate(418.5 1411.5)" fill="none" stroke="#707070" stroke-width="1"/>
        <line id="線_14-5" data-name="線 14" x1="17" y2="18" transform="translate(401.5 1411.5)" fill="none" stroke="#707070" stroke-width="1"/>
        <line id="線_16-5" data-name="線 16" x1="17" y2="18" transform="translate(435.5 1411.5)" fill="none" stroke="#707070" stroke-width="1"/>
      </g>
      <g id="グループ_31-2" data-name="グループ 31" transform="translate(134)">
        <line id="線_11-6" data-name="線 11" x1="17" y2="18" transform="translate(376.5 1411.5)" fill="none" stroke="#707070" stroke-width="1"/>
        <line id="線_18-6" data-name="線 18" x1="17" y2="18" transform="translate(410.5 1411.5)" fill="none" stroke="#707070" stroke-width="1"/>
        <line id="線_13-6" data-name="線 13" x1="17" y2="18" transform="translate(393.5 1411.5)" fill="none" stroke="#707070" stroke-width="1"/>
        <line id="線_15-6" data-name="線 15" x1="17" y2="18" transform="translate(427.5 1411.5)" fill="none" stroke="#707070" stroke-width="1"/>
        <line id="線_12-6" data-name="線 12" x1="17" y2="18" transform="translate(384.5 1411.5)" fill="none" stroke="#707070" stroke-width="1"/>
        <line id="線_17-6" data-name="線 17" x1="17" y2="18" transform="translate(418.5 1411.5)" fill="none" stroke="#707070" stroke-width="1"/>
        <line id="線_14-6" data-name="線 14" x1="17" y2="18" transform="translate(401.5 1411.5)" fill="none" stroke="#707070" stroke-width="1"/>
        <line id="線_16-6" data-name="線 16" x1="17" y2="18" transform="translate(435.5 1411.5)" fill="none" stroke="#707070" stroke-width="1"/>
      </g>
      <g id="グループ_29-2" data-name="グループ 29" transform="translate(67)">
        <line id="線_11-7" data-name="線 11" x1="17" y2="18" transform="translate(376.5 1411.5)" fill="none" stroke="#707070" stroke-width="1"/>
        <line id="線_18-7" data-name="線 18" x1="17" y2="18" transform="translate(410.5 1411.5)" fill="none" stroke="#707070" stroke-width="1"/>
        <line id="線_13-7" data-name="線 13" x1="17" y2="18" transform="translate(393.5 1411.5)" fill="none" stroke="#707070" stroke-width="1"/>
        <line id="線_15-7" data-name="線 15" x1="17" y2="18" transform="translate(427.5 1411.5)" fill="none" stroke="#707070" stroke-width="1"/>
        <line id="線_12-7" data-name="線 12" x1="17" y2="18" transform="translate(384.5 1411.5)" fill="none" stroke="#707070" stroke-width="1"/>
        <line id="線_17-7" data-name="線 17" x1="17" y2="18" transform="translate(418.5 1411.5)" fill="none" stroke="#707070" stroke-width="1"/>
        <line id="線_14-7" data-name="線 14" x1="17" y2="18" transform="translate(401.5 1411.5)" fill="none" stroke="#707070" stroke-width="1"/>
        <line id="線_16-7" data-name="線 16" x1="17" y2="18" transform="translate(435.5 1411.5)" fill="none" stroke="#707070" stroke-width="1"/>
      </g>
      <g id="グループ_30-2" data-name="グループ 30" transform="translate(201)">
        <line id="線_11-8" data-name="線 11" x1="17" y2="18" transform="translate(376.5 1411.5)" fill="none" stroke="#707070" stroke-width="1"/>
        <line id="線_18-8" data-name="線 18" x1="17" y2="18" transform="translate(410.5 1411.5)" fill="none" stroke="#707070" stroke-width="1"/>
        <line id="線_13-8" data-name="線 13" x1="17" y2="18" transform="translate(393.5 1411.5)" fill="none" stroke="#707070" stroke-width="1"/>
        <line id="線_15-8" data-name="線 15" x1="17" y2="18" transform="translate(427.5 1411.5)" fill="none" stroke="#707070" stroke-width="1"/>
        <line id="線_12-8" data-name="線 12" x1="17" y2="18" transform="translate(384.5 1411.5)" fill="none" stroke="#707070" stroke-width="1"/>
        <line id="線_17-8" data-name="線 17" x1="17" y2="18" transform="translate(418.5 1411.5)" fill="none" stroke="#707070" stroke-width="1"/>
        <line id="線_14-8" data-name="線 14" x1="17" y2="18" transform="translate(401.5 1411.5)" fill="none" stroke="#707070" stroke-width="1"/>
        <line id="線_16-8" data-name="線 16" x1="17" y2="18" transform="translate(435.5 1411.5)" fill="none" stroke="#707070" stroke-width="1"/>
      </g>
    </g>
  </g>
</svg>
