<svg id="piggybank_24" xmlns="http://www.w3.org/2000/svg" width="51.599" height="52.166" viewBox="0 0 51.599 52.166">
  <rect id="長方形_2" data-name="長方形 2" width="51.599" height="51.599" fill="none"/>
  <path id="パス_3" data-name="パス 3" d="M6.45,0A6.45,6.45,0,1,1,0,6.45,6.45,6.45,0,0,1,6.45,0Z" transform="translate(19.349 30.099)" fill="none" stroke="#000" stroke-linecap="round" stroke-width="4"/>
  <path id="パス_1" data-name="パス 1" d="M43.312,48.439A20.424,20.424,0,0,0,43.129,28.4V13.642L32.874,19.565a20.489,20.489,0,0,0-14.534-.15L8.01,13.47V27.918a20.424,20.424,0,0,0-.473,20.521H35.4" transform="translate(0.375 1.01)" fill="none" stroke="#000" stroke-linecap="round" stroke-linejoin="round" stroke-width="4"/>
  <path id="パス_2" data-name="パス 2" d="M29.577,12.323a6.45,6.45,0,1,0-10.255,0" transform="translate(1.349 0.147)" fill="none" stroke="#000" stroke-linecap="round" stroke-linejoin="round" stroke-width="4"/>
  <circle id="楕円形_8" data-name="楕円形 8" cx="2.15" cy="2.15" r="2.15" transform="translate(12.9 25.799)"/>
  <circle id="楕円形_9" data-name="楕円形 9" cx="2.15" cy="2.15" r="2.15" transform="translate(34.399 25.799)"/>
</svg>
