<svg id="wad_of_bills_24" xmlns="http://www.w3.org/2000/svg" width="83.75" height="83.75" viewBox="0 0 83.75 83.75">
  <g id="Rect_最後透明に_" data-name="Rect（最後透明に）">
    <rect id="長方形_3" data-name="長方形 3" width="83.75" height="83.75" fill="none"/>
  </g>
  <g id="icon" transform="translate(8.067 9.213)">
    <path id="パス_4" data-name="パス 4" d="M26.043,5.28,5.525,17.127a1.849,1.849,0,0,0,0,3.176l13.958,8.061" transform="translate(-4.624 -5.28)" fill="none" stroke="#000" stroke-linecap="round" stroke-linejoin="round" stroke-width="4"/>
    <line id="線_1" data-name="線 1" x1="7.206" y1="4.153" transform="translate(31.871 4.973)" fill="none" stroke="#000" stroke-linecap="round" stroke-linejoin="round" stroke-width="4"/>
    <path id="パス_5" data-name="パス 5" d="M20.87,28.958l16.017,9.23a1.745,1.745,0,0,0,1.832,0L59.238,26.341a1.832,1.832,0,0,0,0-3.158L45.088,15" transform="translate(7.477 1.959)" fill="none" stroke="#000" stroke-linejoin="round" stroke-width="4"/>
    <path id="パス_6" data-name="パス 6" d="M20.85,30.8l15.7,9.038a2.6,2.6,0,0,0,2.617,0L58.1,28.92" transform="translate(7.462 12.327)" fill="none" stroke="#000" stroke-linecap="round" stroke-linejoin="round" stroke-width="4"/>
    <line id="線_2" data-name="線 2" x2="12.789" y2="7.38" transform="translate(2.105 27.917)" fill="none" stroke="#000" stroke-linecap="round" stroke-linejoin="round" stroke-width="4"/>
    <path id="パス_7" data-name="パス 7" d="M20.85,37.8l15.7,9.038a2.6,2.6,0,0,0,2.617,0L58.1,35.92" transform="translate(7.462 17.54)" fill="none" stroke="#000" stroke-linecap="round" stroke-linejoin="round" stroke-width="4"/>
    <line id="線_3" data-name="線 3" x2="12.789" y2="7.38" transform="translate(2.105 40.13)" fill="none" stroke="#000" stroke-linecap="round" stroke-linejoin="round" stroke-width="4"/>
    <path id="パス_8" data-name="パス 8" d="M40.361,9.51l-27.2,15.7V53.13l13.417,7.747V33.047L53.849,17.309Z" transform="translate(1.734 -2.13)" fill="none" stroke="#000" stroke-linejoin="round" stroke-width="4"/>
  </g>
</svg>
